<svg xmlns="http://www.w3.org/2000/svg" viewBox="0 0 64 64">
  <!-- Rounded Deep Pine Background -->
  <rect width="64" height="64" rx="14" fill="#10170e"/>
  
  <!-- Outer Gear Ring -->
  <path d="M32 10 L35 15 L41 14 L43 20 L49 21 L48 27 L53 30 L50 35 L54 39 L49 43 L51 49 L45 50 L44 56 L38 54 L35 59 L30 55 L26 59 L23 54 L17 56 L16 50 L10 49 L12 43 L7 39 L11 35 L8 30 L13 27 L12 21 L18 20 L20 14 L26 15 Z" 
        fill="none" stroke="#b6d7a8" stroke-width="3" stroke-linejoin="round"/>
        
  <!-- Center Core Actuator -->
  <circle cx="32" cy="32" r="10" fill="#293824" stroke="#b6d7a8" stroke-width="3"/>
  <circle cx="32" cy="32" r="4" fill="#b6d7a8"/>
</svg>